<?xml version="1.0" encoding="utf-8"?>
<svg version="1.1" xmlns="http://www.w3.org/2000/svg" x="0px" y="0px" viewBox="0 0 1000 1000" xml:space="preserve">
        <g fill="#AFB1B3" transform="translate(0.000000,512.000000) scale(0.100000,-0.100000)">
            <path d="M4581.4,4986.9c-32.6-21.1-69-65.1-82.4-99.6c-32.6-95.8-28.7-881.3,5.7-965.6c28.7-67.1,113-124.5,183.9-124.5s155.2,57.5,183.9,124.5c21.1,49.8,26.8,166.7,26.8,488.6c0,469.4-11.5,530.7-113,582.4C4709.8,5032.9,4654.2,5031,4581.4,4986.9z"/>
            <path
                    d="M5422.5,3869.9c-222.2-220.3-337.2-350.6-348.7-388.9c-34.5-134.1,57.5-258.6,193.5-258.6c78.5,0,90,9.6,421.5,339.1c373.6,371.7,398.5,411.9,331.5,532.6c-38.3,72.8-99.6,105.4-195.4,105.4C5759.7,4199.5,5731,4174.6,5422.5,3869.9z"/>
            <path
                    d="M2445.2,2193.5C1506.4,1250.9,820.5,549.7,757.3,463.5C441.2,34.3,240-423.6,144.2-931.3c-49.8-268.2-59.4-839.2-19.2-1076.7c99.6-559.4,302.7-1044.2,609.3-1456.1c124.5-164.8,404.3-456,578.6-597.8c950.3-777.9,2308.7-940.7,3437.1-411.9c503.9,235.7,559.4,285.5,2333.6,2055.8L8664.2-839.4L7869.1-44.3L7074,750.8l-1551.9-1548C4556.5-1762.8,3937.7-2366.3,3884-2397c-235.6-132.2-551.8-174.3-795.1-101.6c-649.5,191.6-942.6,915.8-609.3,1505.9c30.6,53.6,634.2,672.5,1599.8,1638.1l1548.1,1551.9l-791.3,791.3c-433,433-793.2,789.4-798.9,789.4C4031.6,3778,3315,3065.3,2445.2,2193.5z M4550.8,2699.3l502-502l-143.7-143.7L4765.4,1910l-507.7,507.7l-507.7,507.7l137.9,137.9c76.6,76.6,143.7,139.9,149.4,139.9C4043.1,3203.2,4273,2977.1,4550.8,2699.3z M4324.7,1469.3L4181,1325.6l-507.7,507.7L3165.6,2341l143.7,143.7l143.7,143.7l507.7-507.7l507.7-507.7L4324.7,1469.3z M3067.9,210.6c-454.1-456-852.6-867.9-883.2-915.8c-88.1-132.2-151.4-264.4-199.3-421.5c-59.4-185.8-63.2-553.7-11.5-747.2c136-502,523-889,1028.8-1028.8c193.5-51.7,559.4-47.9,747.2,11.5c157.1,47.9,291.2,111.1,421.5,199.2c47.9,30.7,459.8,429.2,915.8,883.2l827.7,825.8l507.7-507.7l507.7-507.7l-846.8-844.9c-908.2-902.4-1048-1023.1-1392.9-1201.3c-948.4-490.5-2036.6-433-2921.8,153.3c-260.6,172.4-611.2,523-783.6,783.6c-423.4,639.9-574.8,1381.4-433,2128.6C602.1-712.9,665.3-529,799.4-255C992.9,145.4,1069.6,235.5,2016,1187.7l860.2,867.9l509.6-509.6l507.7-507.7L3067.9,210.6z M7945.8-983.1l-143.7-143.7L7294.4-619l-507.7,507.7l143.7,143.7L7074,176.1l507.7-507.7l507.7-507.7L7945.8-983.1z M7003.1-921.7l502-502l-143.7-143.7l-143.7-143.7L6710-1203.4l-507.7,507.7l137.9,137.9c76.6,76.6,143.7,139.9,149.4,139.9S6725.3-643.9,7003.1-921.7z"/>
            <path
                    d="M5752.1,3026.9c-70.9-38.3-105.4-99.6-105.4-183.9c0-67.1,11.5-93.9,55.5-139.9l55.6-55.6h488.6c459.8,0,490.5,1.9,536.5,38.3c72.8,57.5,99.6,153.3,63.2,235.7c-49.8,120.7-86.2,128.4-599.7,128.4C5951.3,3048,5777,3040.4,5752.1,3026.9z"/>
            <path
                    d="M7646.9,1977c-23-7.7-59.4-40.2-82.4-69c-38.3-49.8-40.2-69-40.2-538.4V881.1l55.6-55.6c92-90,249.1-70.9,314.2,40.2c28.7,46,32.6,118.8,32.6,507.7c0,505.8-7.7,546-124.5,595.8C7727.4,2000,7704.4,2000,7646.9,1977z"/>
            <path
                    d="M8449.7,821.7c-342.9-341-350.6-352.5-350.6-429.2c0-137.9,124.5-229.9,258.6-195.4c38.3,11.5,168.6,126.5,388.9,348.7c304.6,308.5,329.5,337.2,329.5,402.3c0,136-84.3,224.2-212.7,224.2C8806,1172.3,8762,1135.9,8449.7,821.7z"/>
            <path
                    d="M8794.5-5.9c-63.2-26.8-120.7-113-120.7-182c0-70.9,57.5-155.2,124.5-183.9c49.8-21.1,166.7-26.8,488.6-26.8s438.8,5.7,488.6,26.8c67.1,28.7,124.5,113,124.5,183.9c0,70.9-57.5,155.2-124.5,183.9C9683.5,34.3,8884.6,34.3,8794.5-5.9z"/>
        </g>
</svg>