<?xml version="1.0" encoding="iso-8859-1"?>
<svg version="1.1" xmlns="http://www.w3.org/2000/svg" x="0px" y="0px"
     viewBox="0 0 40 40" style="enable-background:new 0 0 40 40;" xml:space="preserve">
<polyline style="fill:none;stroke:#5E9C76;stroke-miterlimit:10;" points="3,19 12,11 20,15 27,7 37,10 "/>
    <g>
	<circle style="fill:#BAE0BD;" cx="37" cy="10" r="1.5"/>
        <path style="fill:#5E9C76;" d="M37,9c0.551,0,1,0.449,1,1s-0.449,1-1,1s-1-0.449-1-1S36.449,9,37,9 M37,8c-1.105,0-2,0.895-2,2
		s0.895,2,2,2s2-0.895,2-2S38.105,8,37,8L37,8z"/>
</g>
    <g>
	<circle style="fill:#BAE0BD;" cx="27" cy="7" r="1.5"/>
        <path style="fill:#5E9C76;" d="M27,6c0.551,0,1,0.449,1,1s-0.449,1-1,1s-1-0.449-1-1S26.449,6,27,6 M27,5c-1.105,0-2,0.895-2,2
		s0.895,2,2,2s2-0.895,2-2S28.105,5,27,5L27,5z"/>
</g>
    <g>
	<circle style="fill:#BAE0BD;" cx="20" cy="15" r="1.5"/>
        <path style="fill:#5E9C76;" d="M20,14c0.551,0,1,0.449,1,1s-0.449,1-1,1s-1-0.449-1-1S19.449,14,20,14 M20,13c-1.105,0-2,0.895-2,2
		s0.895,2,2,2s2-0.895,2-2S21.105,13,20,13L20,13z"/>
</g>
    <g>
	<circle style="fill:#BAE0BD;" cx="12" cy="11" r="1.5"/>
        <path style="fill:#5E9C76;" d="M12,10c0.551,0,1,0.449,1,1s-0.449,1-1,1s-1-0.449-1-1S11.449,10,12,10 M12,9c-1.105,0-2,0.895-2,2
		s0.895,2,2,2s2-0.895,2-2S13.105,9,12,9L12,9z"/>
</g>
    <g>
	<circle style="fill:#BAE0BD;" cx="3" cy="19" r="1.5"/>
        <path style="fill:#5E9C76;" d="M3,18c0.551,0,1,0.449,1,1s-0.449,1-1,1s-1-0.449-1-1S2.449,18,3,18 M3,17c-1.105,0-2,0.895-2,2
		s0.895,2,2,2s2-0.895,2-2S4.105,17,3,17L3,17z"/>
</g>
    <polyline style="fill:none;stroke:#4E7AB5;stroke-miterlimit:10;" points="3,33 12,25 20,29 28,23 37,21 "/>
    <g>
	<circle style="fill:#8BB7F0;" cx="37" cy="21" r="1.5"/>
        <g>
		<path style="fill:#4E7AB5;" d="M37,20c0.551,0,1,0.449,1,1s-0.449,1-1,1s-1-0.449-1-1S36.449,20,37,20 M37,19
			c-1.105,0-2,0.895-2,2s0.895,2,2,2s2-0.895,2-2S38.105,19,37,19L37,19z"/>
	</g>
</g>
    <g>
	<circle style="fill:#8BB7F0;" cx="28" cy="23" r="1.5"/>
        <g>
		<path style="fill:#4E7AB5;" d="M28,22c0.551,0,1,0.449,1,1s-0.449,1-1,1s-1-0.449-1-1S27.449,22,28,22 M28,21
			c-1.105,0-2,0.895-2,2s0.895,2,2,2s2-0.895,2-2S29.105,21,28,21L28,21z"/>
	</g>
</g>
    <g>
	<circle style="fill:#8BB7F0;" cx="20" cy="29" r="1.5"/>
        <g>
		<path style="fill:#4E7AB5;" d="M20,28c0.551,0,1,0.449,1,1s-0.449,1-1,1s-1-0.449-1-1S19.449,28,20,28 M20,27
			c-1.105,0-2,0.895-2,2s0.895,2,2,2s2-0.895,2-2S21.105,27,20,27L20,27z"/>
	</g>
</g>
    <g>
	<circle style="fill:#8BB7F0;" cx="12" cy="25" r="1.5"/>
        <g>
		<path style="fill:#4E7AB5;" d="M12,24c0.551,0,1,0.449,1,1s-0.449,1-1,1s-1-0.449-1-1S11.449,24,12,24 M12,23
			c-1.105,0-2,0.895-2,2s0.895,2,2,2s2-0.895,2-2S13.105,23,12,23L12,23z"/>
	</g>
</g>
    <g>
	<circle style="fill:#8BB7F0;" cx="3" cy="33" r="1.5"/>
        <g>
		<path style="fill:#4E7AB5;" d="M3,32c0.551,0,1,0.449,1,1s-0.449,1-1,1s-1-0.449-1-1S2.449,32,3,32 M3,31c-1.105,0-2,0.895-2,2
			s0.895,2,2,2s2-0.895,2-2S4.105,31,3,31L3,31z"/>
	</g>
</g>
</svg>
