<?xml version="1.0" encoding="utf-8"?>
<svg version="1.1" xmlns="http://www.w3.org/2000/svg" x="0px" y="0px" viewBox="0 0 122.88 122.88"
     style="enable-background:new 0 0 122.88 122.88" xml:space="preserve">
    <g fill="#AFB1B3">
        <path d="M0.92,32.82l31.9-31.9C33.44,0.3,34.24,0,35.05,0c0.8,0,1.61,0.3,2.22,0.92l84.69,84.69c0.61,0.61,0.92,1.42,0.92,2.23 c0,0.8-0.31,1.6-0.92,2.21l-0.01,0.01l0.01,0.01l-31.9,31.9c-0.62,0.62-1.42,0.92-2.23,0.92c-0.8,0-1.61-0.3-2.23-0.92L0.92,37.27 C0.3,36.65,0,35.84,0,35.05C0,34.24,0.3,33.44,0.92,32.82L0.92,32.82z M105.32,77.15L90.84,91.63c-1.13,1.13-2.84,1.26-3.81,0.29 c-0.97-0.97-0.84-2.68,0.29-3.81l14.48-14.48L90.12,61.94l-6.86,6.85c-1.13,1.13-2.84,1.26-3.81,0.29 c-0.97-0.97-0.84-2.68,0.29-3.81l6.86-6.86L75.88,47.71L61.4,62.19c-1.13,1.13-2.84,1.26-3.81,0.29c-0.97-0.97-0.84-2.68,0.29-3.81 l14.48-14.48L61.09,32.91l-6.86,6.85c-1.13,1.13-2.84,1.26-3.81,0.29c-0.97-0.97-0.84-2.68,0.29-3.81l6.86-6.86L46.43,18.26 L31.95,32.74c-1.13,1.13-2.83,1.25-3.8,0.29c-0.97-0.97-0.84-2.67,0.29-3.8l14.48-14.48l-7.87-7.87L6.87,35.05l80.96,80.96 l28.17-28.17C102.8,74.62,118.53,90.36,105.32,77.15L105.32,77.15z"/>
    </g>
</svg>