<?xml version="1.0" encoding="iso-8859-1"?>
<svg xmlns="http://www.w3.org/2000/svg" xml:space="preserve" version="1.1" viewBox="0 0 40 40">
<g>
    <polyline style="fill:none;stroke:#5E9C76;"
              points="1.802 15.89 1.8 9.356 4.548 9.308 4.597 11.718 7.778 11.67 7.826 18.177 13.611 18.273 13.61 15.044 17.322 14.995 17.37 17.069 21.227 17.02 21.371 8.778 24.89 8.826 24.842 11.525 28.94 11.525 28.892 15.526 32.025 15.526 32.073 13.405 34.58 13.357"/>

    <polyline style="fill:none;stroke:#4E7AB5;"
              points="2.574 28.977 2.572 22.443 5.32 22.395 5.369 24.805 8.55 24.757 8.598 31.264 14.383 31.36 14.382 28.131 18.094 28.082 18.142 30.156 21.999 30.107 21.998 26.83 25.614 26.733 25.614 22.105 29.664 22.057 29.664 28.613 32.797 28.613 32.845 26.492 35.352 26.444"/>

</g>
</svg>