<?xml version="1.0" encoding="UTF-8" standalone="no"?>
<svg width="80" height="80" viewBox="0 0 80 80" version="1.1" xmlns="http://www.w3.org/2000/svg">
    <g fill="#6e6e6e">
        <path opacity="0.3"
              d="m 75.939527,48.817106 c 0,-3.601039 -1.955563,-6.857687 -5.061862,-8.562414 0.0914,-0.420873 0.137572,-0.85067 0.137572,-1.286163 0,-0.893605 -0.199895,-1.772898 -0.583066,-2.581559 1.189215,-1.799211 1.814138,-3.870643 1.814138,-6.035946 0,-3.719837 -1.882616,-7.170379 -4.965221,-9.196108 0.02754,-0.221901 0.04093,-0.437338 0.04093,-0.652468 0,-1.91678 -0.927767,-3.719685 -2.462453,-4.859657 1.55e-4,-0.02154 3.08e-4,-0.04294 3.08e-4,-0.06462 0,-4.442632 -3.024437,-8.3254329 -7.270865,-9.4467859 -1.677332,-3.2069548 -5.013692,-5.24914946 -8.656126,-5.24914946 -3.725378,0 -6.969407,2.09620836 -8.617505,5.17034936 C 38.66728,2.978444 35.42325,0.88223564 31.697872,0.88223564 c -3.642434,0 -6.978794,2.04219466 -8.65613,5.24913726 -4.246428,1.121353 -7.270865,5.0041551 -7.270865,9.4467861 0,0.0217 1.53e-4,0.04309 3.08e-4,0.06462 -1.534686,1.139972 -2.462452,2.942877 -2.462452,4.859656 0,0.215131 0.01339,0.430415 0.04093,0.652469 -3.082605,2.025729 -4.9652211,5.476271 -4.9652211,9.196109 0,2.165302 0.6249236,4.236734 1.8141381,6.035945 -0.3831702,0.808661 -0.5830659,1.687954 -0.5830659,2.581559 0,0.435492 0.046012,0.86529 0.1375715,1.286163 -3.1063006,1.704734 -5.0618593,4.961382 -5.0618593,8.562421 0,4.300442 2.8331585,8.04244 6.8172157,9.306904 -0.436107,0.942079 -0.661855,1.958176 -0.661855,3.003817 0,3.228025 2.121906,6.042717 5.149114,6.976179 0.953157,4.452941 4.924442,7.719744 9.54681,7.719744 0.723871,0 1.446664,-0.08264 2.159146,-0.246368 1.243537,2.394128 3.719376,3.939585 6.458358,3.939585 2.582483,0 4.854733,-1.347409 6.155361,-3.374984 1.300627,2.027575 3.572878,3.374984 6.15536,3.374984 2.738983,0 5.214821,-1.545457 6.458359,-3.939585 0.712482,0.163732 1.435275,0.246368 2.159146,0.246368 4.622368,0 8.593653,-3.266803 9.54681,-7.719744 3.027207,-0.933462 5.149113,-3.748154 5.149113,-6.976179 0,-1.045641 -0.225747,-2.061738 -0.661854,-3.003817 3.984057,-1.264464 6.817216,-5.006462 6.817216,-9.306904 z m -41.779511,28.3916 c -2.12206,0 -4.014065,-1.363565 -4.708235,-3.393141 -0.09941,-0.29038 -0.31023,-0.529209 -0.58599,-0.663702 -0.27576,-0.13465 -0.593839,-0.153731 -0.883756,-0.05339 -0.79912,0.276682 -1.619937,0.417025 -2.439677,0.417025 -3.734918,0 -6.913086,-2.792841 -7.392742,-6.496521 -0.06417,-0.495045 -0.439184,-0.892681 -0.929614,-0.985628 -2.355502,-0.446572 -4.065152,-2.509693 -4.065152,-4.905515 0,-0.941308 0.274065,-1.851685 0.795117,-2.6605 0.154654,0.07695 0.328389,0.121415 0.512896,0.121415 1.818293,0 3.556875,-0.491352 5.068015,-1.411732 0.477658,3.571648 3.54241,6.336021 7.242705,6.336021 4.030378,0 7.309491,-3.279115 7.309491,-7.309491 0,-0.637389 -0.516743,-1.154131 -1.15413,-1.154131 -0.637388,0 -1.15413,0.516742 -1.15413,1.154131 0,2.757755 -2.243629,5.00123 -5.001231,5.00123 -2.757601,0 -5.00123,-2.243475 -5.00123,-5.00123 0,-0.337468 0.03371,-0.674474 0.100021,-1.001478 0.08509,-0.419487 -0.06955,-0.831281 -0.369014,-1.095347 -0.02416,-0.02878 -0.04971,-0.05663 -0.07695,-0.0834 -0.455342,-0.44611 -1.186137,-0.438723 -1.632093,0.01662 -1.415732,1.444817 -3.309121,2.240551 -5.331465,2.240551 -0.177583,0 -0.345163,0.04124 -0.495353,0.112951 -0.144495,-0.09649 -0.310074,-0.162661 -0.488272,-0.186205 -3.6941388,-0.487198 -6.4797472,-3.664133 -6.4797472,-7.390127 0,-3.021819 1.8032123,-5.726178 4.5940522,-6.890002 0.282532,-0.117875 0.506586,-0.343008 0.623077,-0.626154 0.11649,-0.283147 0.11572,-0.600763 -0.0022,-0.883294 -0.192819,-0.462575 -0.290691,-0.950081 -0.290691,-1.449126 0,-0.715253 0.209438,-1.418349 0.605534,-2.03327 0.263143,-0.408562 0.242214,-0.938385 -0.05247,-1.324787 -1.16721,-1.530993 -1.784132,-3.349594 -1.784132,-5.259447 0,-3.16401 1.724272,-6.081651 4.499877,-7.614336 0.007,-0.0038 0.01277,-0.0092 0.0197,-0.01309 1.273083,-0.698018 2.711899,-1.067032 4.17472,-1.067032 2.494152,0 4.871659,1.073804 6.523143,2.94611 0.228056,0.258679 0.546289,0.390711 0.865905,0.390711 0.271298,0 0.543519,-0.0951 0.762958,-0.288532 0.477963,-0.421642 0.523821,-1.150898 0.102183,-1.629017 -2.089129,-2.36889 -5.097714,-3.727532 -8.254031,-3.727532 -1.279545,0 -2.544779,0.22421 -3.737073,0.654007 0.153115,-1.150283 0.832206,-2.157761 1.881233,-2.757447 0.387018,-0.221286 0.612151,-0.645544 0.577988,-1.089962 -0.01554,-0.20328 -0.03016,-0.395173 -0.03016,-0.576756 0,-3.543179 2.517851,-6.6200911 5.986858,-7.3159536 0.365475,-0.073255 0.673089,-0.3186942 0.825895,-0.658778 1.203834,-2.680659 3.875415,-4.4129314 6.805983,-4.4129314 4.115319,0 7.463374,3.3480537 7.463374,7.463375 v 22.483994 c -1.559615,-1.665948 -3.775698,-2.709898 -6.232303,-2.709898 -1.42512,0 -2.808998,0.350086 -4.04838,1.018867 -0.993168,-0.661702 -2.151607,-1.018867 -3.338053,-1.018867 -0.637387,0 -1.15413,0.516743 -1.15413,1.154131 0,0.637387 0.516743,1.15413 1.15413,1.15413 0.906839,0 1.792135,0.343468 2.492768,0.967315 0.394098,0.350855 0.975778,0.389634 1.412963,0.09464 1.029638,-0.694632 2.233165,-1.061799 3.480702,-1.061799 3.436538,0 6.232303,2.795765 6.232303,6.232302 v 33.238946 c 0,2.757602 -2.243629,5.001077 -5.00123,5.001077 z M 67.151671,56.207232 c -0.178351,0.02354 -0.343776,0.08972 -0.488273,0.186199 -0.150345,-0.07171 -0.317771,-0.112951 -0.495352,-0.112951 -2.022499,0 -3.915888,-0.795734 -5.331466,-2.240551 -0.445956,-0.455189 -1.176751,-0.462883 -1.632094,-0.01663 -0.02723,0.02662 -0.05262,0.05448 -0.07664,0.0831 -0.299765,0.264065 -0.454573,0.676166 -0.369474,1.095808 0.06648,0.327003 0.100021,0.663856 0.100021,1.001477 0,2.757755 -2.243629,5.001231 -5.001231,5.001231 -0.637387,0 -1.15413,0.516742 -1.15413,1.15413 0,0.637387 0.516743,1.154129 1.15413,1.154129 3.700296,0 6.765049,-2.764372 7.242705,-6.336019 1.511141,0.920225 3.249723,1.411731 5.068016,1.411731 0.184507,0 0.358242,-0.04447 0.512896,-0.121414 0.521052,0.808661 0.795117,1.719037 0.795117,2.660501 0,2.39582 -1.70965,4.458943 -4.065307,4.905361 -0.490428,0.09294 -0.865444,0.490582 -0.929612,0.985627 -0.479657,3.703679 -3.657824,6.496521 -7.392743,6.496521 -0.81974,0 -1.640557,-0.140342 -2.439678,-0.417026 -0.289917,-0.100331 -0.607994,-0.08125 -0.883755,0.05339 -0.275759,0.134494 -0.486581,0.373476 -0.585991,0.663702 -0.694015,2.029576 -2.586021,3.393141 -4.70808,3.393141 -2.757601,0 -5.00123,-2.243474 -5.00123,-5.001229 V 48.492404 c 1.559614,1.665948 3.775697,2.709897 6.232302,2.709897 1.42512,0 2.808999,-0.350086 4.048381,-1.018866 0.993167,0.661702 2.151606,1.018866 3.338051,1.018866 0.637388,0 1.15413,-0.516743 1.15413,-1.15413 0,-0.637387 -0.516742,-1.15413 -1.15413,-1.15413 -0.906838,0 -1.792133,-0.343469 -2.492766,-0.967314 -0.394098,-0.350703 -0.975626,-0.389635 -1.412963,-0.09464 -1.029639,0.694632 -2.233166,1.061799 -3.480703,1.061799 -3.436538,0 -6.232302,-2.795765 -6.232302,-6.232303 V 24.035317 c 0.75003,0.594915 1.642864,1.017173 2.61849,1.205066 -0.0016,0.06202 -0.0025,0.124338 -0.0025,0.186354 0,4.030375 3.279115,7.30949 7.309491,7.30949 4.030376,0 7.30949,-3.279115 7.30949,-7.30949 0,-0.637389 -0.516742,-1.154132 -1.154129,-1.154132 -0.637388,0 -1.15413,0.516743 -1.15413,1.154132 0,2.757755 -2.243629,5.001229 -5.001231,5.001229 -2.757601,0 -5.001231,-2.243474 -5.001231,-5.001229 0,-0.339931 0.03448,-0.680476 0.102484,-1.011788 0.07064,-0.344855 -0.01986,-0.70325 -0.245907,-0.973163 -0.226056,-0.269759 -0.56414,-0.42195 -0.914994,-0.412562 -0.06002,0.0017 -0.111413,0.0068 -0.151884,0.01186 -2.052967,-0.03017 -3.71399,-1.709653 -3.71399,-3.769697 v -8.617516 c 0,-4.1153202 3.348053,-7.463375 7.463374,-7.463375 2.930567,0 5.602147,1.7322724 6.806136,4.4130856 0.152807,0.3400838 0.460267,0.5855287 0.825896,0.658778 3.468853,0.6957094 5.986703,3.7726204 5.986703,7.3157994 0,0.181583 -0.01462,0.373476 -0.03016,0.576758 -0.03401,0.444416 0.19097,0.868828 0.577988,1.08996 1.049028,0.599686 1.728118,1.607164 1.881234,2.757448 -1.192448,-0.429798 -2.457683,-0.654008 -3.737075,-0.654008 -0.637387,0 -1.15413,0.516743 -1.15413,1.154131 0,0.637387 0.516743,1.15413 1.15413,1.15413 1.462976,0 2.901638,0.36886 4.174719,1.067032 0.0068,0.004 0.01277,0.0092 0.0197,0.01308 2.775761,1.532685 4.500031,4.450325 4.500031,7.614335 0,1.909855 -0.61692,3.728456 -1.784131,5.259448 -0.294688,0.386557 -0.315616,0.916226 -0.05247,1.324787 0.396097,0.614921 0.605533,1.317864 0.605533,2.03327 0,0.499046 -0.09787,0.98655 -0.290687,1.449126 -0.117875,0.282531 -0.118645,0.600148 -0.0022,0.883294 0.11649,0.283146 0.340545,0.508278 0.623075,0.626154 2.790842,1.163825 4.594054,3.868183 4.594054,6.890003 0,3.725993 -2.785608,6.902929 -6.479594,7.390126 z"
        />

        <text x="8" y="48" font-size="24px" font-weight="bold">KDB+</text>

        <path d="M 13,59 H 2 V 18 H 12 v 3 H 5 V 56 H 13 Z"/>
        <path d="M 79,59 H 68 v -3 h 8 V 21 h -7 v -3 h 10 z"/>
    </g>
</svg>
