<?xml version="1.0" encoding="UTF-8" standalone="no"?>
<svg
        width="16"
        height="16"
        viewBox="0 0 16 16"
        fill="#AFB1B3"
        version="1.1"
        xmlns="http://www.w3.org/2000/svg">
    <path
            d="m 14.585832,7.1905375 c 0.08188,-0.081811 0.188581,-0.1400401 0.306741,-0.1587775 0.270364,-0.042379 0.497343,0.1394506 0.507164,0.406417 0.06275,1.6950761 -0.07925,4.074592 -1.364227,5.358444 -1.281482,1.280355 -3.546198,1.310152 -5.2389283,1.250854 -0.2671057,-0.0095 -0.449811,-0.235764 -0.4076196,-0.505873 0.041744,-0.270315 0.2922256,-0.481188 0.5596798,-0.471853 1.4032251,0.04903 3.3758521,0.139221 4.4378031,-0.921796 1.064985,-1.06405 1.086957,-3.1509241 1.034759,-4.5560394 -0.0054,-0.1504239 0.05898,-0.2958768 0.164685,-0.4014928 z"
            id="path4997-3"
            style="stroke-width:0.041191"/>
    <path
            d="m 7.4654936,13.628973 2.0162424,-2.01447 c 0.2023519,-0.202174 0.5120748,-0.220944 0.691289,-0.04189 0.179215,0.179057 0.160432,0.488505 -0.04192,0.690682 l -1.283061,1.281933 1.298704,1.297563 c 0.179211,0.179054 0.160431,0.488504 -0.04192,0.690681 -0.2023519,0.202174 -0.5120748,0.220944 -0.6912892,0.04189 z"
            id="path4999-0"
            style="stroke-width:0.041191"/>
    <g
            id="g466"
            transform="translate(-3,-3)"
            style="opacity:0.8">
        <polygon
                points="3,9 16,9 16,8 3,8 "
                id="polygon252"
                style="fill:#AFB1B3;fill-rule:evenodd"/>
        <polygon
                points="3,12 16,12 16,11 3,11 "
                id="polygon254"
                style="fill:#AFB1B3;fill-rule:evenodd"/>
        <path
                d="m 12,14 h 3 V 6 h -3 z m -4,0 h 3 V 6 H 8 Z M 4,14 H 7 V 6 H 4 Z m 0,1 H 16 V 3 H 3 v 12 z"
                id="path256"
                style="fill:#AFB1B3;fill-rule:evenodd"/>
    </g>
</svg>
