<?xml version="1.0" encoding="UTF-8" standalone="no"?>
<svg width="13" height="13" xmlns="http://www.w3.org/2000/svg">
    <g fill-rule="evenodd" fill="#AFB1B3">
        <path transform="matrix(0.83333333,0,0,0.81666939,-0.1267466,1.2036435)"
              d="M 8,4 C 5.27273,4 2.94364,5.77714 2,8.28571 c 0.94364,2.50859 3.27273,4.28569 6,4.28569 2.7273,0 5.0564,-1.7771 6,-4.28569 C 13.0564,5.77714 10.7273,4 8,4 Z m 0,7.2857 c -1.656,0 -3,-1.34399 -3,-2.99999 0,-1.656 1.344,-3 3,-3 1.656,0 3,1.344 3,3 0,1.656 -1.344,2.99999 -3,2.99999 z m -10e-6,-4.71427 c -0.94857,0 -1.71428,0.76571 -1.71428,1.71428 C 6.28571,9.23429 7.05142,10 7.99999,10 8.94856,10 9.71428,9.23429 9.71428,8.28571 9.71428,7.33714 8.94856,6.57143 7.99999,6.57143 Z"/>

        <path d="M 1.5389221,0.98702598 H 11.538922 V 3.987026 H 1.5389221 Z m 1,1.00000002 v 1 h 2.0000001 v -1 z"/>
    </g>
</svg>
