<svg version="1.1" xmlns="http://www.w3.org/2000/svg" width="16" height="16" viewBox="0 0 1000 1000">
    <g transform="translate(0.000000,512.000000) scale(0.100000,-0.100000)" fill="#AFB1B3">
        <path d="M7288.3,4993.1c-492-78.5-897.9-283.3-1234.8-622.2c-204.8-208.7-317.8-396.3-507.3-850c-201-478.6-356.1-794.5-490.1-997.4c-118.7-183.8-137.8-252.7-84.2-329.3c36.4-51.7,120.6-70.8,187.6-45.9c116.8,45.9,388.6,534.1,616.5,1112.3c201,513.1,294.8,687.3,449.9,844.3c499.7,505.4,1215.7,702.6,1904.9,526.5c675.8-174.2,1215.7-733.2,1391.8-1439.7c55.5-222.1,59.3-631.8,11.5-853.9c-116.8-524.6-438.4-970.6-855.8-1190.8c-68.9-36.4-277.6-126.4-461.4-202.9c-582-235.5-1108.5-520.7-1165.9-629.8c-32.5-57.4-24.9-126.4,19.1-181.9c63.2-78.5,147.4-68.9,321.7,42.1c291,185.7,467.1,271.9,1188.9,570.5c474.8,197.2,781.1,469,1041.5,917c103.4,181.9,206.7,459.5,252.7,679.6c24.9,124.4,28.7,227.8,23,493.9c-7.6,294.8-17.2,361.8-61.3,511.2c-61.2,204.9-189.5,478.6-300.5,645.2c-114.9,168.5-453.7,511.2-620.3,626C8442.7,4945.3,7847.3,5083.1,7288.3,4993.1z"/>
        <path d="M7451,4359.5c-26.8-3.8-99.6-17.2-162.7-28.7c-325.5-57.4-706.4-292.9-899.8-555.2c-99.6-135.9-201-342.7-354.2-725.6c-145.5-359.9-340.8-752.4-497.8-991.7c-126.4-197.2-145.5-279.5-76.6-348.4c59.3-59.3,172.3-51.7,235.5,15.3c135.9,141.7,386.7,616.5,635.6,1200.4c214.4,503.5,264.2,591.6,430.8,758.1c381,384.8,938.1,467.1,1455,214.4c566.7-277.6,844.3-957.2,637.5-1560.3c-101.5-292.9-296.7-534.1-534.1-660.5c-63.2-32.5-306.3-143.6-543.7-245C7286.4,1221.7,7026,1089.6,6758,913.5c-137.8-90-189.5-134-199.1-172.3c-21.1-80.4,13.4-147.4,93.8-185.7c82.3-40.2,72.7-44,404,164.6c202.9,130.2,444.1,248.9,897.9,442.2c411.6,176.1,539.9,239.3,702.6,348.4c287.2,187.6,513.1,570.5,585.8,987.9c139.8,806-388.6,1610-1196.5,1816.8C7906.6,4351.8,7552.5,4378.6,7451,4359.5z"/>
        <path d="M7407,3689.4c-181.9-44-319.7-120.6-453.7-256.5c-157-157-254.6-329.3-425-750.5c-178-442.2-365.7-825.1-520.7-1058.7c-128.3-195.3-151.2-271.9-107.2-354.2c28.7-53.6,128.3-82.3,189.5-51.7c114.9,53.6,421.2,595.4,672,1190.8c271.9,639.4,379.1,806,593.5,907.5c90,42.1,132.1,49.8,277.6,49.8c149.3,0,185.7-7.6,279.5-53.6c59.4-28.7,145.5-91.9,189.5-139.8c189.5-206.8,233.6-469,116.8-704.5c-109.1-222.1-256.5-317.8-786.8-509.2c-453.7-164.6-712.2-306.3-746.6-413.5c-49.8-147.4,91.9-258.4,231.6-181.9c36.4,19.1,114.9,63.2,174.2,95.7c61.3,34.5,258.4,116.8,436.5,183.8c442.2,166.6,610.7,256.5,769.6,413.5c336.9,331.2,390.5,836.6,130.2,1242.5C8224.4,3616.7,7789.9,3783.2,7407,3689.4z"/>
        <path d="M4320.9,2178.9c-34.5-32.5-47.9-67-47.9-118.7c0-70.8,36.4-109.1,1298-1368.8c1259.7-1261.6,1298-1298,1368.8-1298c93.8,0,166.6,67,166.6,157c0,57.4-107.2,170.4-1307.6,1368.8C4600.4,2119.6,4487.4,2226.8,4430,2226.8C4387.9,2226.8,4351.5,2211.5,4320.9,2178.9z"/>
        <path d="M3861.4,1719.4c-32.6-30.6-47.9-67-47.9-109.1c0-57.4,105.3-168.5,1307.6-1370.7C6321.5-958.9,6432.5-1066.1,6489.9-1066.1c84.2,0,157,72.7,157,157c0,57.4-107.2,170.4-1307.6,1368.8C4140.9,1660.1,4028,1767.3,3970.5,1767.3C3928.4,1767.3,3892,1752,3861.4,1719.4z"/>
        <path d="M3402,1260c-32.5-30.6-47.9-67-47.9-109.1c0-57.4,107.2-170.4,1307.6-1368.8C5860.1-1418.3,5973-1525.5,6030.5-1525.5c84.2,0,157,72.7,157,157c0,57.4-105.3,168.5-1307.6,1370.7C3679.5,1200.6,3568.5,1307.8,3511.1,1307.8C3469,1307.8,3432.6,1292.5,3402,1260z"/>
        <path d="M2942.5,800.5c-30.6-30.6-47.9-67-47.9-109.1c0-55.5,118.7-179.9,1365-1432C5724.2-2209,5741.4-2228.2,5921.3-2603.4c204.8-432.7,239.3-821.3,103.4-1219.5c-51.7-153.2-44-216.3,34.5-275.7c42.1-30.6,63.2-34.5,122.5-19.1c84.2,21.1,111,65.1,191.4,327.4c45.9,151.2,49.8,197.2,49.8,465.2c0,243.1-7.6,323.6-40.2,444.2c-90,333.1-247,635.6-471,922.8c-68.9,86.2-719.8,752.4-1451.1,1481.8C3172.2,810.1,3132,848.4,3061.2,848.4C3009.5,848.4,2975,835,2942.5,800.5z"/>
        <path d="M2624.7,76.8c-325.5-204.8-549.4-314-1070.2-524.6c-440.3-178-693-340.8-905.5-587.7c-673.9-783-733.2-1908.7-145.5-2758.7c199.1-289.1,582-610.7,907.5-763.9c281.4-134,662.4-222.1,957.2-222.1c693,0,1460.7,392.5,1803.4,920.8c97.6,153.2,178,321.6,350.3,735.2c155.1,375.2,294.8,652.8,426.9,853.8c114.9,172.3,132.1,243.1,80.4,317.8c-36.4,51.7-134,72.7-206.8,45.9c-116.8-45.9-396.3-555.2-654.7-1198.4c-187.6-467.1-250.8-580.1-428.8-758.1c-685.4-683.5-1767-756.2-2544.3-172.3c-373.3,283.3-605,627.9-716,1068.3c-59.3,235.5-59.3,708.3,0,928.5c143.6,528.4,457.6,940,878.7,1152.5c53.6,26.8,277.6,122.5,495.8,212.5c453.7,189.5,595.4,258.4,838.5,407.8C2911.8-129.9,2971.2-72.5,2971.2,6c0,68.9-88.1,172.3-147.4,172.3C2802.7,178.3,2714.7,132.4,2624.7,76.8z"/>
        <path d="M3028.6-424.7c-222.1-149.3-490.1-283.3-966.8-490.1c-645.2-277.6-792.6-365.7-961.1-580.1c-122.5-157-256.5-426.9-304.4-614.5c-53.6-206.8-49.8-620.3,7.7-821.3c283.3-982.1,1361.2-1468.4,2274.4-1026.1c183.8,90,415.4,266.1,511.2,392.5c95.7,124.4,239.3,409.7,377.1,756.2c151.2,375.2,344.6,761.9,495.8,991.7c118.7,178,139.8,250.8,97.6,329.3c-24.9,47.9-113,72.7-185.7,53.6c-46-11.5-80.4-47.9-155.1-164.6c-185.7-291-314-539.9-511.2-999.3c-264.2-610.7-298.7-673.9-459.5-832.8c-247-247-568.6-365.6-938.1-348.4c-545.6,24.9-987.9,359.9-1169.7,884.5c-47.9,137.8-53.6,180-53.6,402c0,229.7,3.8,262.3,57.4,413.5c32.5,91.9,99.6,225.9,149.3,300.6c170.4,258.4,285.3,331.2,978.3,626c543.7,229.7,1104.6,541.8,1158.2,641.3c59.3,109.1-9.6,210.6-137.8,208.7C3225.8-302.2,3178-325.2,3028.6-424.7z"/>
        <path d="M3857.6-1012.5C3717.8-1165.6,3446-1673,3222-2203.3c-262.3-614.5-373.3-781.1-582-874.9c-137.8-63.2-402-65.1-534.1-3.8c-126.3,57.4-254.6,183.8-315.9,310.1c-46,91.9-51.7,130.2-51.7,279.5c0,149.3,5.7,187.6,51.7,281.4c99.6,206.7,260.4,306.3,779.2,493.9c453.7,164.6,712.2,306.3,746.6,413.5c49.8,147.4-91.9,258.4-231.7,181.9c-36.4-19.2-114.9-63.2-174.2-95.7c-61.3-34.5-258.5-116.8-436.5-183.8c-601.1-225.9-813.6-375.2-957.2-666.2c-160.8-329.3-141.7-679.6,55.5-984c310.1-480.5,1024.2-560.9,1456.9-164.6c145.5,134,262.3,336.9,430.8,752.4c181.9,448,396.3,878.7,543.7,1100.8c130.2,193.3,149.3,283.3,78.5,354.2C4028-955,3909.3-957,3857.6-1012.5z"/>
    </g>
</svg>