<?xml version="1.0" encoding="UTF-8"?>
<svg xmlns="http://www.w3.org/2000/svg" width="16px" height="16px" viewBox="0 0 32 32" version="1.1">
    <g fill="#737580">
        <path fill="#6E6E6E"
              d="M 31.050781 0.246094 L 24.523438 0.246094 C 23.898438 0.246094 23.582031 1 24.027344 1.445312 L 26.054688 3.472656 L 14.214844 15.3125 L 10.066406 11.167969 L 8.957031 10.054688 C 8.582031 9.679688 7.972656 9.679688 7.59375 10.054688 L 0.527344 17.125 C 0.152344 17.5 0.152344 18.109375 0.527344 18.484375 L 1.636719 19.597656 C 2.015625 19.972656 2.625 19.972656 3 19.597656 L 8.277344 14.320312 L 13.523438 19.570312 C 13.902344 19.945312 14.511719 19.945312 14.886719 19.570312 L 15.453125 19.003906 C 15.480469 18.980469 15.511719 18.960938 15.539062 18.933594 L 28.527344 5.945312 L 30.554688 7.972656 C 31 8.417969 31.753906 8.101562 31.753906 7.476562 L 31.753906 0.949219 C 31.753906 0.558594 31.441406 0.246094 31.050781 0.246094 Z M 31.050781 0.246094 "/>
        <path d="M 23.222656 13.480469 L 23.222656 30.792969 C 23.222656 31.324219 23.652344 31.753906 24.183594 31.753906 L 27.257812 31.753906 C 27.789062 31.753906 28.222656 31.324219 28.222656 30.792969 L 28.222656 8.480469 Z M 23.222656 13.480469 "/>
        <path d="M 16.742188 19.960938 L 16.742188 30.792969 C 16.742188 31.324219 17.171875 31.753906 17.703125 31.753906 L 20.777344 31.753906 C 21.308594 31.753906 21.742188 31.324219 21.742188 30.792969 L 21.742188 14.960938 Z M 16.742188 19.960938 "/>
        <path d="M 14.207031 21.425781 C 13.527344 21.425781 12.890625 21.164062 12.410156 20.683594 L 10.257812 18.53125 L 10.257812 30.792969 C 10.257812 31.324219 10.691406 31.753906 11.222656 31.753906 L 14.296875 31.753906 C 14.828125 31.753906 15.257812 31.324219 15.257812 30.792969 L 15.257812 21.195312 C 14.933594 21.347656 14.574219 21.425781 14.207031 21.425781 Z M 14.207031 21.425781 "/>
        <path d="M 8.277344 16.546875 L 4.113281 20.710938 C 4.011719 20.8125 3.898438 20.90625 3.777344 20.988281 L 3.777344 30.792969 C 3.777344 31.324219 4.210938 31.753906 4.742188 31.753906 L 7.816406 31.753906 C 8.347656 31.753906 8.777344 31.324219 8.777344 30.792969 L 8.777344 17.050781 Z M 8.277344 16.546875 "/>
    </g>
</svg>
