<?xml version="1.0"?>
<svg xmlns="http://www.w3.org/2000/svg" width="16" height="16" viewBox="0 0 16 16">
    <path fill="#6E6E6E"
          d="M 13.646484 1.6464844 L 12.158203 3.1347656 L 11.839844 2.8164062 C 11.296365 2.2735345 10.580834 2.0019438 9.8652344 2.0019531 C 9.1496346 2.0019625 8.4336568 2.2753275 7.890625 2.8183594 L 6.7070312 4 L 6.3535156 3.6464844 L 5.6464844 4.3535156 L 11.646484 10.353516 L 12.353516 9.6464844 L 12 9.2929688 L 13.183594 8.109375 C 14.269337 7.0224182 14.269657 5.2462199 13.183594 4.1601562 L 12.865234 3.8417969 L 14.353516 2.3535156 L 13.646484 1.6464844 z M 9.8652344 2.9980469 C 10.322901 2.9980069 10.780291 3.1732625 11.132812 3.5253906 L 12.476562 4.8671875 C 13.180499 5.5711238 13.180819 6.6973005 12.476562 7.4023438 L 11.292969 8.5859375 L 7.4140625 4.7070312 L 8.5976562 3.5253906 C 8.9496244 3.1734225 9.4075678 2.9980869 9.8652344 2.9980469 z M 4.3535156 5.6464844 L 3.6464844 6.3535156 L 4 6.7070312 L 2.8164062 7.890625 C 1.7306625 8.9775818 1.7303427 10.75378 2.8164062 11.839844 L 3.1347656 12.158203 L 1.6464844 13.646484 L 2.3535156 14.353516 L 3.8417969 12.865234 L 4.1601562 13.183594 C 5.2471131 14.269337 7.0233113 14.267751 8.109375 13.181641 L 9.2929688 12 L 9.6464844 12.353516 L 10.353516 11.646484 L 4.3535156 5.6464844 z M 4.7070312 7.4140625 L 8.5859375 11.292969 L 7.4023438 12.474609 C 6.6984074 13.178546 5.5722307 13.178866 4.8671875 12.474609 L 3.5234375 11.132812 C 2.8195012 10.428876 2.8191812 9.3026995 3.5234375 8.5976562 L 4.7070312 7.4140625 z"/>
</svg>
