<svg xmlns="http://www.w3.org/2000/svg" width="16" height="16" viewBox="0 0 16 16">
    <path fill="#6E6E6E" d="M11,2 L2,2 L2,11 L0,11 L0,0 L11,0 L11,2 Z"/>

    <g fill="none" fill-rule="evenodd">
        <polygon fill="#6E6E6E" points="3 9 16 9 16 8 3 8"/>
        <polygon fill="#6E6E6E" points="3 12 16 12 16 11 3 11"/>
        <path fill="#6E6E6E"
              d="M12,14 L15,14 L15,6 L12,6 L12,14 Z M8,14 L11,14 L11,6 L8,6 L8,14 Z M4,14 L7,14 L7,6 L4,6 L4,14 Z M4,15 L16,15 L16,3 L3,3 L3,15 Z"/>
    </g>
</svg>
