<svg xmlns="http://www.w3.org/2000/svg" width="16" height="16" viewBox="0 0 16 16">
    <!--
        <g fill="#6E6E6E" fill-rule="evenodd" transform="matrix(-1 0 0 1 14 0)">
            <polygon fill-opacity="0.8" points="14 0 9 0 9 12 14 12"/>
            <path d="M1,11 L4,11 L4,9 L1,9 L1,11 Z M1,12 L0,12 L0,3 L0,0 L8,0 L8,3 L5,3 L5,5 L8,5 L8,6 L5,6 L5,8 L8,8 L8,9 L5,9 L5,11 L8,11 L8,12 L1,12 Z M1,8 L4,8 L4,6 L1,6 L1,8 Z M1,5 L4,5 L4,3 L1,3 L1,5 Z"/>
        </g>
    -->
    <path fill="#6E6E6E" d="M11,2 L2,2 L2,11 L0,11 L0,0 L11,0 L11,2 Z"/>

    <g fill="#6E6E6E" fill-rule="evenodd" transform="matrix(-1 0 0 1 16 3)">
        <polygon fill-opacity="0.8" points="13 0 9 0 9 12 13 12"/>
        <path d="M1,11 L4,11 L4,9 L1,9 L1,11 Z M1,12 L0,12 L0,3 L0,0 L8,0 L8,3 L5,3 L5,5 L8,5 L8,6 L5,6 L5,8 L8,8 L8,9 L5,9 L5,11 L8,11 L8,12 L1,12 Z M1,8 L4,8 L4,6 L1,6 L1,8 Z M1,5 L4,5 L4,3 L1,3 L1,5 Z"/>
    </g>
</svg>
