<?xml version="1.0"?>
<svg xmlns="http://www.w3.org/2000/svg" width="16" height="16" viewBox="0 0 16 16">
    <path style="fill: black"
          d="M 14.646484 0.64648438 L 13.158203 2.1347656 L 12.839844 1.8164062 C 12.296365 1.2735345 11.580834 1.0019438 10.865234 1.0019531 C 10.149635 1.0019625 9.4336568 1.2753275 8.890625 1.8183594 L 7.7070312 3 L 7.3535156 2.6464844 L 6.6464844 3.3535156 L 8.2929688 5 L 6.6464844 6.6464844 L 7.3535156 7.3535156 L 9 5.7070312 L 10.292969 7 L 8.6464844 8.6464844 L 9.3535156 9.3535156 L 11 7.7070312 L 12.646484 9.3535156 L 13.353516 8.6464844 L 13 8.2929688 L 14.183594 7.109375 C 15.269337 6.0224182 15.269657 4.2462199 14.183594 3.1601562 L 13.865234 2.8417969 L 15.353516 1.3535156 L 14.646484 0.64648438 z M 10.865234 1.9980469 C 11.322901 1.9980069 11.780292 2.1732625 12.132812 2.5253906 L 13.476562 3.8671875 C 14.180499 4.5711238 14.180819 5.6973005 13.476562 6.4023438 L 12.292969 7.5859375 L 8.4140625 3.7070312 L 9.5976562 2.5253906 C 9.9496247 2.1734225 10.407568 1.9980869 10.865234 1.9980469 z M 3.3535156 6.6464844 L 2.6464844 7.3535156 L 3 7.7070312 L 1.8164062 8.890625 C 0.73066262 9.9775818 0.73034267 11.75378 1.8164062 12.839844 L 2.1347656 13.158203 L 0.64648438 14.646484 L 1.3535156 15.353516 L 2.8417969 13.865234 L 3.1601562 14.183594 C 4.2471132 15.269337 6.0233113 15.267751 7.109375 14.181641 L 8.2929688 13 L 8.6464844 13.353516 L 9.3535156 12.646484 L 3.3535156 6.6464844 z M 3.7070312 8.4140625 L 7.5859375 12.292969 L 6.4023438 13.474609 C 5.6984074 14.178546 4.5722307 14.178866 3.8671875 13.474609 L 2.5234375 12.132812 C 1.8195012 11.428877 1.8191812 10.302699 2.5234375 9.5976562 L 3.7070312 8.4140625 z"/>
</svg>
