<svg version="1.0" xmlns="http://www.w3.org/2000/svg" width="16" height="16" viewBox="0 0 300 300"
     preserveAspectRatio="xMidYMid">
    <g transform="translate(0.000000,300.000000) scale(0.100000,-0.100000)" fill="#1A1A1A" stroke="none">
        <path d="M1937 2920 c-121 -15 -267 -71 -354 -136 -17 -13 -35 -24 -40 -24
-11 0 -143 -137 -172 -179 -52 -75 -99 -180 -120 -267 -24 -105 -29 -285 -9
-390 15 -82 8 -90 -83 -99 -83 -8 -119 -33 -144 -99 -21 -55 -15 -76 41 -144
23 -29 41 -58 38 -65 -3 -7 -234 -241 -513 -520 -479 -479 -510 -512 -529
-565 -11 -32 -23 -69 -26 -84 -4 -16 -11 -28 -16 -28 -6 0 -10 -34 -10 -80 0
-46 4 -80 10 -80 5 0 12 -11 16 -25 9 -34 41 -55 86 -55 51 0 80 13 114 51 16
18 47 48 68 68 22 20 49 46 60 59 21 24 162 163 466 462 446 440 830 822 830
828 -1 20 -49 63 -67 60 -11 -1 -338 -318 -727 -703 -388 -385 -713 -701 -721
-703 -34 -8 -31 75 6 175 18 48 69 102 545 575 l524 523 0 48 c0 44 -4 53 -50
101 -79 83 -76 86 88 107 82 11 95 15 102 35 5 12 14 25 19 29 15 9 14 38 -3
72 -41 81 -54 289 -23 393 53 181 86 240 197 350 78 76 111 102 171 129 41 18
83 38 94 44 25 13 80 25 167 38 93 13 288 -9 343 -38 11 -6 42 -19 68 -28 128
-45 322 -218 386 -345 65 -128 80 -163 97 -230 23 -91 25 -256 5 -350 -38
-175 -157 -344 -314 -448 -129 -86 -258 -118 -437 -109 -63 3 -140 14 -170 23
-30 9 -68 18 -83 21 -36 7 -97 -25 -97 -50 0 -10 -6 -30 -14 -45 -7 -15 -16
-48 -20 -73 -4 -26 -15 -54 -26 -64 -18 -16 -22 -13 -90 59 -68 71 -75 76
-115 76 -40 0 -47 -5 -121 -80 -43 -44 -82 -88 -86 -97 -3 -10 -7 -50 -7 -90
-1 -97 -10 -103 -148 -103 -139 0 -139 0 -149 -160 -7 -118 -8 -123 -38 -155
-31 -32 -31 -32 -158 -40 -162 -9 -173 -16 -183 -111 -14 -138 -64 -185 -204
-198 -40 -3 -77 -9 -82 -12 -14 -9 -10 -71 5 -84 19 -15 190 -3 226 16 14 7
52 40 84 73 58 59 60 63 67 127 4 39 12 70 20 75 8 5 55 9 105 9 105 0 145 13
190 62 60 64 64 75 64 179 0 69 4 100 14 108 8 6 60 12 126 14 109 2 112 3
136 30 20 23 24 39 24 90 1 96 13 135 61 183 24 24 49 44 56 44 6 0 36 -25 65
-56 116 -124 212 -112 256 33 11 38 23 81 27 97 5 26 9 28 43 23 20 -3 88 -12
150 -21 310 -42 597 75 775 318 66 89 147 276 147 339 0 12 7 35 15 51 10 19
15 58 15 121 0 63 -5 102 -15 121 -8 16 -15 39 -15 51 0 28 -53 177 -86 242
-33 66 -114 173 -179 234 -91 87 -169 141 -300 206 -100 49 -325 79 -468 61z"/>

        <path d="M2266 2546 c-55 -21 -86 -45 -121 -97 -27 -39 -30 -52 -29 -119 0
-56 5 -85 21 -115 72 -137 255 -168 370 -63 62 57 86 194 49 268 -56 109 -185
165 -290 126z m173 -135 c36 -41 46 -89 28 -133 -44 -103 -171 -113 -234 -19
-37 54 -28 109 23 157 32 31 42 34 102 30 44 -2 57 -8 81 -35z"/>
    </g>

    <g transform="translate(0.000000,300.000000) scale(0.100000,-0.100000)" fill="#A0A0A0" stroke="none">
        <path d="M2292 2444 c-20 -9 -58 -47 -70 -71 -44 -82 46 -192 143 -177 104 16 145 135 74 215 -24 27 -37 33 -81 35 -29 2 -59 1 -66 -2z"/>
    </g>
</svg>