<svg xmlns="http://www.w3.org/2000/svg" width="16" height="16" viewBox="0 0 16 16">
    <g fill="none" fill-rule="evenodd">
        <path fill="#6E6E6E"
              d="
              M3 2L13 2 13 5 3 5 3 2zM4 3L4 4 6 4 6 3 4 3z
              M3 6L13 6 13 8 11 8 11 9 3 9 3 6zM4 7L4 8 6 8 6 7 4 7z
              M3 10L9 10 9 13 3 13 3 10zM4 11L4 12 6 12 6 11 4 11z"/>

        <rect width="2" height="6" x="12" y="9" fill="#6E6E6E"/>
        <rect width="6" height="2" x="10" y="11" fill="#6E6E6E"/>
    </g>
</svg>
