<svg xmlns="http://www.w3.org/2000/svg" width="16" height="16"
     viewBox="0 0 16 16">
    <g fill="none" fill-rule="evenodd">
        <path fill="#62B543" fill-opacity=".6"
              d="M15,8 C15,11.866 11.866,15 8,15 C4.134,15 1,11.866 1,8 C1,4.134 4.134,1 8,1 C11.866,1 15,4.134 15,8"/>

        <text fill="#231F20" x="4.5" y="11.5" font-size="10" opacity=".7">C</text>

        <path fill="#9AA7B0"
              d="M13.8541667,10.6666667 C13.5125,9.69583333 12.5875,9 11.5,9 C10.1208333,9 9,10.1208333 9,11.5 C9,12.8791667 10.1208333,14 11.5,14 C12.5875,14 13.5125,13.3041667 13.8541667,12.3333333 L15.5,12.3333333 L15.5,14 L17,14 L17,12.3333333 L18,12.3333333 L18,10.6666667 L13.8541667,10.6666667 Z M11.5,12.3333333 C11.0416667,12.3333333 10.6666667,11.9583333 10.6666667,11.5 C10.6666667,11.0416667 11.0416667,10.6666667 11.5,10.6666667 C11.9583333,10.6666667 12.3333333,11.0416667 12.3333333,11.5 C12.3333333,11.9583333 11.9583333,12.3333333 11.5,12.3333333 Z"
              transform="matrix(0 1 1 0 2 -2)"/>
    </g>
</svg>
